<svg width="24" height="24" viewBox="0 0 24 24" fill="none" xmlns="http://www.w3.org/2000/svg">
<g id="Pharmacies">
<rect width="24" height="24" rx="12" fill="#0058A6"/>
<circle id="Ellipse 6427" cx="12" cy="12" r="7" stroke="white" stroke-width="2"/>
<path id="Union" fill-rule="evenodd" clip-rule="evenodd" d="M11.5 7.98535C11.2239 7.98535 11 8.20921 11 8.48535V11H8.48535C8.20921 11 7.98535 11.2239 7.98535 11.5V12.5C7.98535 12.7761 8.20921 13 8.48535 13H11V15.5146C11 15.7908 11.2239 16.0146 11.5 16.0146H12.5C12.7761 16.0146 13 15.7908 13 15.5146V13H15.5146C15.7908 13 16.0146 12.7761 16.0146 12.5V11.5C16.0146 11.2239 15.7908 11 15.5146 11H13V8.48535C13 8.20921 12.7761 7.98535 12.5 7.98535H11.5Z" fill="white"/>
</g>
</svg>
