<svg width="24" height="24" viewBox="0 0 24 24" fill="none" xmlns="http://www.w3.org/2000/svg">
<g id="Prices ">
<rect width="24" height="24" rx="12" fill="#0058A6"/>
<path id="$" d="M12.0591 19.5669C11.7914 19.5669 11.5744 19.3499 11.5744 19.0822V4.91833C11.5744 4.65062 11.7914 4.43359 12.0591 4.43359C12.3269 4.43359 12.5439 4.65062 12.5439 4.91833V19.0822C12.5439 19.3499 12.3269 19.5669 12.0591 19.5669ZM15.2693 9.27507C14.7582 9.27507 14.3644 8.85384 14.0606 8.4428C13.9565 8.30203 13.8273 8.17748 13.673 8.06913C13.2671 7.78144 12.739 7.6376 12.0887 7.6376C11.6316 7.6376 11.2394 7.70656 10.9123 7.8445C10.5852 7.98243 10.335 8.16963 10.1616 8.40609C9.98817 8.64254 9.8995 8.9125 9.89556 9.21595C9.89556 9.46818 9.9527 9.6869 10.067 9.87212C10.1852 10.0573 10.3448 10.215 10.5458 10.345C10.7468 10.4712 10.9695 10.5776 11.2138 10.6643C11.4582 10.751 11.7045 10.8239 11.9527 10.883L13.0877 11.1667C13.5449 11.2731 13.9843 11.417 14.406 11.5983C14.8316 11.7796 15.2119 12.0081 15.5469 12.284C15.8858 12.5599 16.1538 12.8929 16.3509 13.283C16.5479 13.6732 16.6464 14.1303 16.6464 14.6545C16.6464 15.3639 16.4651 15.9885 16.1026 16.5284C15.74 17.0644 15.2159 17.4841 14.5301 17.7875C13.8483 18.0871 13.0227 18.2368 12.0532 18.2368C11.1113 18.2368 10.2936 18.091 9.59999 17.7994C8.91032 17.5077 8.37041 17.0821 7.98025 16.5225C7.77062 16.2187 7.61323 15.879 7.5081 15.5033C7.35514 14.9566 7.82597 14.4771 8.39362 14.4771H8.58329C9.10665 14.4771 9.50342 14.9113 9.77836 15.3566C9.81561 15.4169 9.85665 15.4745 9.90147 15.5294C10.13 15.8092 10.4276 16.0181 10.7941 16.156C11.1645 16.2939 11.5784 16.3629 12.0355 16.3629C12.5124 16.3629 12.9301 16.292 13.2887 16.1501C13.6513 16.0043 13.935 15.8033 14.14 15.5471C14.3449 15.287 14.4493 14.9836 14.4533 14.6367C14.4493 14.3215 14.3567 14.0614 14.1754 13.8564C13.9942 13.6476 13.74 13.4742 13.4129 13.3362C13.0897 13.1944 12.7114 13.0682 12.2779 12.9579L10.9005 12.6032C9.90344 12.347 9.11525 11.9589 8.53593 11.4387C7.96055 10.9145 7.67286 10.2189 7.67286 9.35192C7.67286 8.6386 7.86596 8.01396 8.25218 7.47799C8.64233 6.94202 9.17239 6.52625 9.84236 6.23067C10.5123 5.93116 11.271 5.7814 12.1183 5.7814C12.9774 5.7814 13.7301 5.93116 14.3764 6.23067C15.0267 6.52625 15.537 6.93808 15.9075 7.46617C16.0852 7.71758 16.2216 7.98713 16.3168 8.27482C16.4924 8.80559 16.0225 9.27507 15.4634 9.27507H15.2693Z" fill="white"/>
</g>
</svg>
